<svg id="Loaded_Lion" data-name="Loaded Lion" xmlns="http://www.w3.org/2000/svg" width="96" height="96" viewBox="0 0 64 64"><polygon fill="#fff" points="30.13 44.93 30.32 44.2 30.41 43.39 29.48 43.81 29.73 44.47 30.13 44.93"></polygon><polygon fill="#fff" points="35.1 44.2 35.29 44.93 35.7 44.47 35.95 43.81 35.01 43.39 35.1 44.2"></polygon><path fill="#fff" d="M35.72,45a0,0,0,0,0-.06,0l-.42.43a0,0,0,0,1-.07,0l-.31-1a.32.32,0,0,0-.23-.22,7.24,7.24,0,0,0-1.92-.29,7.32,7.32,0,0,0-1.92.29.34.34,0,0,0-.23.22l-.31,1a0,0,0,0,1-.07,0L29.76,45a0,0,0,0,0-.06,0l-.22.38a.06.06,0,0,0,0,0L30,46a3.54,3.54,0,0,1,.42.73l.22.55a1.66,1.66,0,0,1-.05,1.18l-.74,1.69.64-.5a4.32,4.32,0,0,0,.75-.73l.22-.28.25,1a5.28,5.28,0,0,0,.54,1.38l.49.86.49-.86a5,5,0,0,0,.54-1.38l.25-1,.22.28a4.7,4.7,0,0,0,.75.73l.65.5-.75-1.69a1.66,1.66,0,0,1,0-1.18l.22-.55a3.54,3.54,0,0,1,.42-.73l.49-.63a0,0,0,0,0,0,0Z"></path><path fill="#fff" d="M42.53,32.62,40,33.08l4.57-3.58-3.47.68-2.14,1.05-2.18,2-1.15-.77-.75.93.75,3-1-2.8-.62-.26.44-.18,1.07-1.22,1.62-2.05-1.34,2.16L41,30l2.48-5.8L39.38,26.8l.71-1.64-2.48,1.59L34.18,28l-1.47,1.23L31.24,28l-3.43-1.25-2.48-1.59.72,1.64L22,24.19,24.44,30l5.25,2.06-1.34-2.16L30,31.94l1.08,1.22.43.18-.61.26-1.06,2.8.75-3-.74-.93-1.16.77-2.17-2-2.14-1.05-3.47-.68,4.56,3.58-2.55-.46,4.37,2.65.9,1.38-1.44-.29,2,1.44,1.15,1.11-.94-.37a.53.53,0,0,0-.41,0l-1.95.81,1.91,1.39-2.06-.89.35.78,1.71.49L26.92,41l.29.66,1.24-.07L27.34,42l.29.63A.87.87,0,0,0,28,43l.76.48a.68.68,0,0,0,.66,0l2.89-1.24a.33.33,0,0,0,.18-.29V41a.31.31,0,0,0-.09-.22l-.58-.63a.15.15,0,0,1,0-.19.9.9,0,0,0,.21-.69.94.94,0,0,0-.83-.82.91.91,0,0,0-.61.16.14.14,0,0,1-.19,0l-.91-1s0-.11.06-.11l1.5.07a2,2,0,0,0,1.69.61,2,2,0,0,0,1.69-.61l1.51-.07a.07.07,0,0,1,.05.11l-.9,1a.14.14,0,0,1-.19,0,.94.94,0,0,0-.62-.16.92.92,0,0,0-.82.82.93.93,0,0,0,.2.69.14.14,0,0,1,0,.19L33,40.8A.35.35,0,0,0,33,41v1a.32.32,0,0,0,.17.29L36,43.55a.66.66,0,0,0,.65,0l.77-.48a1,1,0,0,0,.35-.41l.28-.63L37,41.62l1.23.07.3-.66-1.53.1,1.7-.49.36-.78L37,40.75l1.91-1.39-2-.81a.53.53,0,0,0-.41,0l-1,.37,1.15-1.11,2-1.44-1.44.29.89-1.38Z"></path><path fill="#fff" d="M54.16,28A13.64,13.64,0,0,0,51,30c1.08-2.57,1.86-5.17,1.69-6.57s-.85-2.37-1.94-4a60.09,60.09,0,0,1-5.3-11.88c-.23,4.11-.51,5.15-1.51,6.42-.77,1-1.94,2.52-1.94,2.52a5.9,5.9,0,0,0-1.11-2.92A80,80,0,0,1,35.44,6c-1.38-2.47-2.35-4.15-2.73-6.18C32.33,1.86,31.37,3.54,30,6a80.06,80.06,0,0,1-5.41,7.52,6,6,0,0,0-1.12,2.92s-1.17-1.54-1.94-2.52c-1-1.27-1.27-2.31-1.5-6.42a60.69,60.69,0,0,1-5.3,11.88c-1.1,1.65-1.77,2.62-2,4s.62,4,1.69,6.57a13.56,13.56,0,0,0-3.18-2,6.55,6.55,0,0,1-2.85-2.53c.15,1.62,1.59,4,2.45,6.18A30.6,30.6,0,0,1,12.46,37a3.47,3.47,0,0,0,1.48,1.85c.56.41,2.28,1.17,4.3,2.42-1.31.53-3.4,4-4,7.78.88-1.9,4-3.06,5.93-3.66a12.07,12.07,0,0,0-1.5,3c.1,3,.75,4.84,2.27,8.11.2-1.62,2.5-5.43,4.19-6.35a15.72,15.72,0,0,0,.5,4.83c.66-.13,1.86.46,3.07,1.71a22.92,22.92,0,0,1,4,6.69,22.92,22.92,0,0,1,4-6.69c1.21-1.25,2.41-1.84,3.07-1.71a15.11,15.11,0,0,0,.5-4.83c1.7.92,4,4.73,4.19,6.35,1.52-3.27,2.17-5.11,2.27-8.11a11.71,11.71,0,0,0-1.49-3c1.9.6,5.05,1.76,5.92,3.66-.56-3.79-2.65-7.25-4-7.78,2-1.25,3.73-2,4.29-2.42A3.49,3.49,0,0,0,53,37a29.37,29.37,0,0,1,1.58-5.41c.86-2.18,2.3-4.56,2.45-6.18A6.47,6.47,0,0,1,54.16,28Zm-2.39,7.26A2.49,2.49,0,0,1,51,36.76c-.34.29-4.5,3.46-6.57,4.15.91.47,3.83,2.59,4.38,4.64a15,15,0,0,0-4-1.54c-.85-.19-2.67-.54-2.67-.54s2.58,2.83,3.15,5.05a12,12,0,0,1-.6,4.65c-1.68-2.55-3-4.12-5.73-4.76a14.63,14.63,0,0,1,0,4.08c-.07.56-.09.92-.75,1.21a9.17,9.17,0,0,0-2.28,1.46c-.6.59-1.92,2.5-3.11,4.1-1.18-1.6-2.51-3.51-3.1-4.1a9.21,9.21,0,0,0-2.29-1.46c-.65-.29-.68-.65-.75-1.21a15,15,0,0,1,0-4.08c-2.7.64-4.05,2.21-5.73,4.76a11.92,11.92,0,0,1-.59-4.65c.56-2.22,3.14-5.05,3.14-5.05s-1.81.35-2.67.54a15,15,0,0,0-4,1.54c.55-2,3.46-4.17,4.38-4.64-2.08-.69-6.24-3.86-6.58-4.15a2.44,2.44,0,0,1-.78-1.54A18.38,18.38,0,0,0,11.8,30a9.49,9.49,0,0,0,2.48,1.69,21.89,21.89,0,0,1,4,3.27,16.25,16.25,0,0,1-2.49-6.12c-.37-1.59-1.27-4.34-1.1-5.28s.66-1.57,1.94-3.74,2.18-4.6,2.93-6.15a22.38,22.38,0,0,0,2.72,3.75c.69.92,1.18,1.47,2.35,3-.46-2.58,1.15-5,1.94-6.21s3.08-4.35,4.21-5.95a23.28,23.28,0,0,0,1.94-3.25,24.54,24.54,0,0,0,1.94,3.25c1.13,1.6,3.43,4.68,4.22,5.95s2.39,3.63,1.93,6.21c1.18-1.56,1.66-2.11,2.35-3a21.83,21.83,0,0,0,2.72-3.75c.75,1.55,1.69,4,2.94,6.15s1.78,2.94,1.93,3.74-.72,3.69-1.1,5.28A16.25,16.25,0,0,1,47.15,35a21.89,21.89,0,0,1,4-3.27A9.78,9.78,0,0,0,53.63,30,18.06,18.06,0,0,0,51.77,35.22Z"></path></svg>